PathFileType	4	(x/y/z)	S01_M20_T09.trc
DataRate	CameraRate	NumFrames	NumMarkers	Units	OrigDataRate	OrigDataStartFrame	OrigNumFrames
240	240	6	51	mm	240	177	471
Frame#	Time	Sternum			R.Acromium			L.Acromium			Top.Head			R.ASIS			L.ASIS			R.PSIS			L.PSIS			R.Great.Tro			L.Great.Tro			R.Iliac.Crest			L.Iliac.Crest			V.Sacral			R.Thigh.Upper.Post			R.Thigh.Lower.Ant			R.Thigh.Lower.Post			R.Thigh.Upper.Ant			R.Knee.Lat			R.Knee.Med			R.Shank.Upper.Post			R.Shank.Lower.Ant			R.Shank.Lower.Post			R.Shank.Upper.Ant			R.Ankle.Lat			R.Ankle.Med			R.Heel.Upper			R.Heel.Med			R.Heel.Lat			R.Toe.Lat			R.Toe.Med			R.Toe.Tip			L.Thigh.Upper.Post			L.Thigh.Lower.Ant			L.Thigh.Lower.Post			L.Thigh.Upper.Ant			L.Knee.Lat			L.Knee.Med			L.Shank.Upper.Post			L.Shank.Lower.Ant			L.Shank.Lower.Post			L.Shank.Upper.Ant			L.Ankle.Lat			L.Ankle.Med			L.Heel.Upper			L.Heel.Med			L.Heel.Lat			L.Toe.Lat			L.Toe.Med			L.Toe.Tip			Cervical.Spine			Back			
		X1	Y1	Z1	X2	Y2	Z2	X3	Y3	Z3	X4	Y4	Z4	X5	Y5	Z5	X6	Y6	Z6	X7	Y7	Z7	X8	Y8	Z8	X9	Y9	Z9	X10	Y10	Z10	X11	Y11	Z11	X12	Y12	Z12	X13	Y13	Z13	X14	Y14	Z14	X15	Y15	Z15	X16	Y16	Z16	X17	Y17	Z17	X18	Y18	Z18	X19	Y19	Z19	X20	Y20	Z20	X21	Y21	Z21	X22	Y22	Z22	X23	Y23	Z23	X24	Y24	Z24	X25	Y25	Z25	X26	Y26	Z26	X27	Y27	Z27	X28	Y28	Z28	X29	Y29	Z29	X30	Y30	Z30	X31	Y31	Z31	X32	Y32	Z32	X33	Y33	Z33	X34	Y34	Z34	X35	Y35	Z35	X36	Y36	Z36	X37	Y37	Z37	X38	Y38	Z38	X39	Y39	Z39	X40	Y40	Z40	X41	Y41	Z41	X42	Y42	Z42	X43	Y43	Z43	X44	Y44	Z44	X45	Y45	Z45	X46	Y46	Z46	X47	Y47	Z47	X48	Y48	Z48	X49	Y49	Z49	X50	Y50	Z50	X51	Y51	Z51	

177	0.73333	-353.6	1286.9	297.41	-456.25	1519	503.17	-503.09	1560.8	179.52	-439.6	1855	355.05	-380.44	1028.7	439.15	-404.87	1030.7	173.5	-628.01	1071.4	371.77	-639.4	1067.7	269.47	-448.55	977.89	527.21	-518.91	975.86	106.75	-461.77	1120.7	519.53	-524.13	1117.3	116.35	-648.83	1033.7	320.89	-410.44	670.51	488.5	-332.73	614.46	448.2	-394.89	585.95	461.74	-345.44	700.97	475.37	-363.76	529.68	449.67	-377.49	535.98	308.84	-421.73	369.57	471.98	-368.53	286.57	421.35	-429.13	299.91	459.96	-363.77	357.63	440.71	-444.84	102.01	416.98	-416.33	108.61	322.91	-517.91	73.179	359.29	-501.6	44.249	330.19	-505.9	43.032	394.81	-314.89	37.438	450.69	-284.09	40.243	325.72	-220.63	60.325	379.33	-500.12	689.04	117.63	-411.12	630.99	88.027	-474.21	601.88	126.41	-443.81	720.55	84.641	-429.16	533.05	93.777	-367.44	518.64	233.75	-553.73	484.65	97.458	-580.75	377.54	111.05	-611.78	432.2	105.68	-521.3	428.2	99.528	-776.32	303.68	152.03	-734.03	277.85	239.51	-833.13	334.27	216.63	-839.98	308.21	249.98	-855.93	315.6	190.01	-755.84	149.23	111.3	-708.75	120.38	221.9	-673.14	84.862	156.72	-562.92	1595.3	359.86	-648.24	1283.3	355.87
178	0.7375	-348.56	1288	297.58	-451.09	1520.2	503.37	-498.56	1561.7	179.77	-434.84	1856	354.86	-375.15	1029.6	439.45	-399.66	1031.9	173.91	-622.72	1072.3	372	-633.95	1068.7	269.66	-443.49	978.51	527.44	-513.41	977.04	106.97	-456.38	1121.9	519.63	-518.79	1118.5	116.7	-643.46	1034.6	321.04	-407.58	670.73	488.83	-330.29	614.06	448.58	-392.68	586.08	462.07	-342.34	700.69	475.69	-362.05	529.53	450.02	-375.5	535.9	309.15	-420.76	369.63	472.21	-367.8	286.47	421.6	-428.41	300	460.14	-362.81	357.49	441	-444.68	102.1	417.01	-416.16	108.72	322.96	-517.82	73.321	359.31	-501.55	44.387	330.21	-505.85	43.136	394.83	-314.83	37.337	450.75	-284.02	40.208	325.76	-220.53	60.092	379.42	-491.7	690.16	117.38	-402.05	632.98	88.136	-465	603.27	126.19	-435.62	722.23	84.583	-419.17	534.83	94.02	-357.37	521.16	233.99	-543.31	485.37	97.725	-568.82	377.93	111.34	-600.77	432.36	105.8	-510.32	429.25	99.725	-764.19	302.15	152.11	-721.58	276.95	239.65	-821.67	331.66	216.61	-828.15	305.37	249.76	-844.12	312.71	189.92	-740.97	148.22	111.2	-693.62	120.01	221.85	-657.24	85.269	156.69	-557.99	1596.2	360.19	-643.03	1284.1	356.54
179	0.74167	-343.51	1289.1	297.76	-445.95	1521.4	503.57	-494.03	1562.6	180	-430.1	1856.9	354.64	-369.88	1030.4	439.78	-394.43	1033.1	174.33	-617.43	1073.1	372.21	-628.49	1069.6	269.82	-438.47	979.1	527.67	-507.9	978.22	107.18	-451.04	1123	519.74	-513.43	1119.7	117.03	-638.08	1035.4	321.16	-404.76	670.96	489.14	-327.91	613.66	448.96	-390.52	586.21	462.39	-339.28	700.41	476.01	-360.38	529.39	450.38	-373.56	535.83	309.45	-419.82	369.7	472.43	-367.1	286.37	421.86	-427.71	300.09	460.31	-361.88	357.37	441.3	-444.54	102.18	417.04	-416	108.83	323	-517.72	73.465	359.32	-501.51	44.524	330.23	-505.8	43.243	394.83	-314.77	37.237	450.82	-283.96	40.178	325.79	-220.44	59.865	379.51	-483.34	691.31	117.08	-393.04	635	88.259	-455.86	604.67	125.92	-427.47	723.93	84.519	-409.23	536.6	94.273	-347.41	523.68	234.26	-532.93	485.97	97.952	-556.86	378.2	111.64	-589.74	432.36	105.9	-499.34	430.2	99.928	-751.95	300.38	152.18	-709.03	275.84	239.79	-810.1	328.79	216.56	-816.2	302.29	249.55	-832.18	309.55	189.82	-725.92	147.03	111.14	-678.32	119.51	221.83	-641.17	85.545	156.71	-553.08	1597	360.51	-637.82	1284.9	357.18
180	0.74583	-338.46	1290.3	297.94	-440.82	1522.5	503.75	-489.5	1563.4	180.23	-425.38	1857.9	354.39	-364.63	1031.3	440.12	-389.2	1034.3	174.78	-612.15	1073.9	372.39	-623.03	1070.4	269.94	-433.47	979.67	527.9	-502.36	979.4	107.37	-445.74	1124.1	519.87	-508.05	1120.8	117.34	-632.7	1036.3	321.25	-401.99	671.18	489.45	-325.58	613.26	449.34	-388.41	586.34	462.71	-336.26	700.13	476.33	-358.77	529.24	450.74	-371.66	535.77	309.75	-418.93	369.78	472.64	-366.43	286.29	422.12	-427.05	300.18	460.48	-360.99	357.25	441.6	-444.39	102.27	417.07	-415.85	108.94	323.05	-517.62	73.609	359.32	-501.47	44.659	330.24	-505.74	43.354	394.84	-314.71	37.141	450.88	-283.89	40.152	325.83	-220.35	59.646	379.6	-475.04	692.47	116.73	-384.07	637.02	88.395	-446.81	606.1	125.61	-419.36	725.64	84.45	-399.34	538.37	94.535	-337.56	526.22	234.53	-522.58	486.44	98.139	-544.89	378.36	111.95	-578.7	432.2	105.97	-488.36	431.06	100.14	-739.6	298.38	152.24	-696.36	274.55	239.94	-798.41	325.67	216.5	-804.12	298.97	249.33	-820.11	306.13	189.7	-710.71	145.65	111.1	-662.84	118.88	221.85	-624.93	85.7	156.77	-548.16	1597.8	360.81	-632.61	1285.7	357.79
181	0.75	-333.42	1291.4	298.12	-435.7	1523.7	503.93	-484.97	1564.2	180.44	-420.67	1858.8	354.11	-359.42	1032.1	440.5	-383.95	1035.5	175.24	-606.88	1074.7	372.54	-617.58	1071.3	270.04	-428.51	980.2	528.13	-496.81	980.58	107.55	-440.48	1125.1	520.04	-502.67	1122	117.63	-627.31	1037.1	321.3	-399.26	671.41	489.74	-323.29	612.86	449.72	-386.35	586.48	463.03	-333.29	699.84	476.64	-357.2	529.11	451.09	-369.8	535.7	310.05	-418.06	369.85	472.85	-365.78	286.21	422.37	-426.42	300.28	460.63	-360.12	357.14	441.89	-444.25	102.35	417.09	-415.7	109.04	323.09	-517.53	73.754	359.32	-501.42	44.792	330.24	-505.69	43.469	394.84	-314.66	37.05	450.94	-283.83	40.128	325.86	-220.26	59.434	379.68	-466.8	693.65	116.34	-375.15	639.06	88.545	-437.84	607.53	125.28	-411.27	727.36	84.379	-389.52	540.12	94.805	-327.82	528.76	234.83	-512.28	486.79	98.285	-532.9	378.41	112.26	-567.65	431.89	106.01	-477.39	431.84	100.35	-727.13	296.16	152.3	-683.58	273.08	240.09	-786.59	322.3	216.43	-791.91	295.43	249.13	-807.91	302.45	189.57	-695.33	144.11	111.08	-647.2	118.11	221.9	-608.52	85.746	156.86	-543.25	1598.6	361.1	-627.41	1286.5	358.39
182	0.75417	-328.37	1292.4	298.3	-430.59	1524.8	504.09	-480.44	1564.9	180.63	-415.98	1859.6	353.8	-354.22	1032.9	440.89	-378.69	1036.6	175.72	-601.61	1075.5	372.66	-612.14	1072.1	270.12	-423.57	980.7	528.35	-491.23	981.75	107.7	-435.27	1126.1	520.23	-497.29	1123	117.91	-621.93	1037.8	321.33	-396.57	671.64	490.01	-321.04	612.47	450.1	-384.33	586.62	463.34	-330.35	699.55	476.94	-355.68	528.97	451.44	-367.99	535.64	310.34	-417.23	369.93	473.05	-365.15	286.13	422.62	-425.82	300.38	460.77	-359.29	357.04	442.18	-444.11	102.44	417.1	-415.55	109.14	323.12	-517.43	73.897	359.31	-501.38	44.922	330.24	-505.63	43.587	394.84	-314.6	36.965	451	-283.77	40.107	325.89	-220.17	59.23	379.76	-458.61	694.84	115.91	-366.29	641.11	88.706	-428.94	608.98	124.92	-403.22	729.08	84.306	-379.76	541.87	95.081	-318.21	531.3	235.14	-502.01	487.01	98.392	-520.92	378.36	112.57	-556.59	431.43	106.03	-466.42	432.53	100.57	-714.56	293.73	152.36	-670.68	271.42	240.25	-774.65	318.7	216.35	-779.55	291.66	248.93	-795.56	298.53	189.43	-679.79	142.42	111.09	-631.39	117.24	221.96	-591.96	85.694	156.97	-538.33	1599.4	361.36	-622.21	1287.2	358.96
